<?xml version="1.0" encoding="utf-8"?>
<!-- Generator: Adobe Illustrator 23.0.2, SVG Export Plug-In . SVG Version: 6.00 Build 0)  -->
<svg version="1.1" id="レイヤー_1" xmlns="http://www.w3.org/2000/svg" xmlns:xlink="http://www.w3.org/1999/xlink" x="0px"
	 y="0px" viewBox="0 0 150 146.3" style="enable-background:new 0 0 150 146.3;" xml:space="preserve">
<style type="text/css">
	.st0{filter:url(#Adobe_OpacityMaskFilter);}
	.st1{clip-path:url(#SVGID_2_);}
	.st2{clip-path:url(#SVGID_5_);fill:url(#SVGID_6_);}
	.st3{clip-path:url(#SVGID_2_);mask:url(#SVGID_3_);fill:url(#SVGID_7_);}
	.st4{fill:#CE623F;}
	.st5{clip-path:url(#SVGID_9_);fill-rule:evenodd;clip-rule:evenodd;fill:#CE623F;}
</style>
<g>
	<defs>
		<polygon id="SVGID_1_" points="6.3,6.3 6.3,6.3 6.3,140 143.8,140 143.8,6.3 143.7,6.3 		"/>
	</defs>
	<clipPath id="SVGID_2_">
		<use xlink:href="#SVGID_1_"  style="overflow:visible;"/>
	</clipPath>
	<defs>
		<filter id="Adobe_OpacityMaskFilter" filterUnits="userSpaceOnUse" x="-26.8" y="-27.7" width="203.6" height="201.7">
			<feColorMatrix  type="matrix" values="1 0 0 0 0  0 1 0 0 0  0 0 1 0 0  0 0 0 1 0"/>
		</filter>
	</defs>
	<mask maskUnits="userSpaceOnUse" x="-26.8" y="-27.7" width="203.6" height="201.7" id="SVGID_3_">
		<g class="st0">
			<g>
				<defs>
					<polygon id="SVGID_4_" points="15.2,-27.7 176.8,15 134.8,174 -26.8,131.3 					"/>
				</defs>
				<clipPath id="SVGID_5_" class="st1">
					<use xlink:href="#SVGID_4_"  style="overflow:visible;"/>
				</clipPath>

					<radialGradient id="SVGID_6_" cx="-254.4141" cy="390.3703" r="24.6207" gradientTransform="matrix(3.52 0.9308 0.9308 -3.52 593.2703 1661.7106)" gradientUnits="userSpaceOnUse">
					<stop  offset="0" style="stop-color:#D9D9D9"/>
					<stop  offset="0.7669" style="stop-color:#FFFFFF"/>
					<stop  offset="1" style="stop-color:#FFFFFF"/>
				</radialGradient>
				<polygon class="st2" points="-13.5,-78.1 226.7,-14.5 163.5,224.3 -76.6,160.8 				"/>
			</g>
		</g>
	</mask>

		<radialGradient id="SVGID_7_" cx="-254.452" cy="390.3492" r="24.6274" gradientTransform="matrix(3.52 0.9308 0.9308 -3.52 593.2703 1661.7106)" gradientUnits="userSpaceOnUse">
		<stop  offset="0" style="stop-color:#231600"/>
		<stop  offset="0.7669" style="stop-color:#231600"/>
		<stop  offset="1" style="stop-color:#231600"/>
	</radialGradient>
	<polygon class="st3" points="15.2,-27.7 176.8,15 134.8,174 -26.8,131.3 	"/>
</g>
<path class="st4" d="M6.3,6.3h137.5V140H6.3V6.3z M0,146.3h150V0H0V146.3z"/>
<g>
	<defs>
		<rect id="SVGID_8_" width="150" height="146.3"/>
	</defs>
	<clipPath id="SVGID_9_">
		<use xlink:href="#SVGID_8_"  style="overflow:visible;"/>
	</clipPath>
	<path class="st5" d="M52,82.8l-4.9,18.7c-0.1,0.5-0.3,0.6-0.9,0.6H37c-0.6,0-0.7-0.2-0.6-0.9l17.7-62.2c0.3-1.1,0.5-2.1,0.6-5.2
		c0-0.4,0.2-0.6,0.5-0.6h13.1c0.4,0,0.6,0.1,0.7,0.6L89,101.4c0.1,0.5,0,0.8-0.5,0.8H78.1c-0.5,0-0.8-0.1-0.9-0.5L72,82.8H52z
		 M69.5,72.7c-1.7-6.9-5.9-22.1-7.4-29.4H62c-1.4,7.3-4.7,19.7-7.2,29.4H69.5z M97.6,37.9c0-4,2.8-6.4,6.4-6.4
		c3.8,0,6.4,2.6,6.4,6.4c0,4.1-2.7,6.4-6.5,6.4C100.2,44.3,97.6,42.1,97.6,37.9 M98.3,52.1c0-0.5,0.2-0.7,0.7-0.7h9.8
		c0.5,0,0.7,0.2,0.7,0.7v49.3c0,0.5-0.1,0.7-0.7,0.7h-9.7c-0.6,0-0.8-0.3-0.8-0.8V52.1z"/>
</g>
</svg>
