<?xml version="1.0" encoding="utf-8"?>
<!-- Generator: Adobe Illustrator 23.0.2, SVG Export Plug-In . SVG Version: 6.00 Build 0)  -->
<svg version="1.1" id="レイヤー_1" xmlns="http://www.w3.org/2000/svg" xmlns:xlink="http://www.w3.org/1999/xlink" x="0px"
	 y="0px" viewBox="0 0 150 146.3" style="enable-background:new 0 0 150 146.3;" xml:space="preserve">
<style type="text/css">
	.st0{filter:url(#Adobe_OpacityMaskFilter);}
	.st1{clip-path:url(#SVGID_2_);}
	.st2{clip-path:url(#SVGID_5_);fill:url(#SVGID_6_);}
	.st3{clip-path:url(#SVGID_2_);mask:url(#SVGID_3_);fill:url(#SVGID_7_);}
	.st4{fill:#48A4CF;}
	.st5{clip-path:url(#SVGID_9_);fill-rule:evenodd;clip-rule:evenodd;fill:#48A4CF;}
</style>
<g>
	<defs>
		<polygon id="SVGID_1_" points="6.3,6.3 6.3,6.3 6.3,140 143.8,140 143.8,6.3 143.7,6.3 		"/>
	</defs>
	<clipPath id="SVGID_2_">
		<use xlink:href="#SVGID_1_"  style="overflow:visible;"/>
	</clipPath>
	<defs>
		<filter id="Adobe_OpacityMaskFilter" filterUnits="userSpaceOnUse" x="-26.8" y="-27.7" width="203.6" height="201.7">
			<feColorMatrix  type="matrix" values="1 0 0 0 0  0 1 0 0 0  0 0 1 0 0  0 0 0 1 0"/>
		</filter>
	</defs>
	<mask maskUnits="userSpaceOnUse" x="-26.8" y="-27.7" width="203.6" height="201.7" id="SVGID_3_">
		<g class="st0">
			<g>
				<defs>
					<polygon id="SVGID_4_" points="15.2,-27.7 176.8,15 134.8,174 -26.8,131.3 					"/>
				</defs>
				<clipPath id="SVGID_5_" class="st1">
					<use xlink:href="#SVGID_4_"  style="overflow:visible;"/>
				</clipPath>
				
					<radialGradient id="SVGID_6_" cx="-253.7083" cy="387.6353" r="24.626" gradientTransform="matrix(3.52 0.9308 0.9308 -3.52 593.3058 1651.5228)" gradientUnits="userSpaceOnUse">
					<stop  offset="0" style="stop-color:#D9D9D9"/>
					<stop  offset="0.7669" style="stop-color:#FFFFFF"/>
					<stop  offset="1" style="stop-color:#FFFFFF"/>
				</radialGradient>
				<polygon class="st2" points="-13.5,-78 226.7,-14.5 163.5,224.3 -76.6,160.8 				"/>
			</g>
		</g>
	</mask>
	
		<radialGradient id="SVGID_7_" cx="-253.7326" cy="387.6145" r="24.62" gradientTransform="matrix(3.52 0.9308 0.9308 -3.52 593.3058 1651.5228)" gradientUnits="userSpaceOnUse">
		<stop  offset="0" style="stop-color:#132022"/>
		<stop  offset="0.7669" style="stop-color:#132022"/>
		<stop  offset="1" style="stop-color:#132022"/>
	</radialGradient>
	<polygon class="st3" points="15.2,-27.7 176.8,15 134.8,174 -26.8,131.3 	"/>
</g>
<path class="st4" d="M6.3,6.3h137.5V140H6.3V6.3z M0,146.3h150V0H0V146.3z"/>
<g>
	<defs>
		<rect id="SVGID_8_" width="150" height="146.3"/>
	</defs>
	<clipPath id="SVGID_9_">
		<use xlink:href="#SVGID_8_"  style="overflow:visible;"/>
	</clipPath>
	<path class="st5" d="M36.3,34.3c0-0.4,0.9-0.7,1.4-0.7c4-0.2,9.9-0.3,16.1-0.3c17.3,0,24.1,9.5,24.1,21.7
		c0,15.9-11.5,22.7-25.7,22.7c-2.4,0-3.2-0.1-4.9-0.1v24c0,0.5-0.2,0.7-0.7,0.7H37c-0.5,0-0.7-0.2-0.7-0.7V34.3z M47.3,67.5
		c1.5,0.1,2.6,0.1,5,0.1c7.3,0,14.2-2.6,14.2-12.5c0-8-4.9-12-13.3-12c-2.5,0-4.8,0.1-6,0.2V67.5z M101.2,60c-4.9,0-6.6,2.5-6.6,4.5
		c0,2.3,1.1,3.8,7.7,7.2c9.8,4.7,12.9,9.3,12.9,16c0,10-7.6,15.4-18,15.4c-5.5,0-10.1-1.1-12.8-2.7c-0.4-0.2-0.5-0.5-0.5-1v-9.2
		c0-0.6,0.3-0.8,0.7-0.5c3.9,2.6,8.5,3.7,12.6,3.7c4.9,0,7-2.1,7-4.8c0-2.3-1.4-4.2-7.7-7.5c-8.9-4.2-12.6-8.5-12.6-15.7
		c0-8.1,6.3-14.8,17.2-14.8c5.4,0,9.2,0.8,11.2,1.7c0.5,0.3,0.6,0.8,0.6,1.2v8.6c0,0.5-0.3,0.8-0.9,0.6
		C109.3,61.1,105.2,60,101.2,60"/>
</g>
</svg>
